<svg width="628" height="109" viewBox="0 0 628 109" fill="none" xmlns="http://www.w3.org/2000/svg">
<path d="M0.24 26H19.76L18 40.72H18.96C21.0933 36.0267 24.24 32.24 28.4 29.36C32.6667 26.3733 37.5733 24.88 43.12 24.88C49.2 24.88 54.5333 26.4267 59.12 29.52C63.7067 32.5067 67.12 36.9333 69.36 42.8C71.1733 37.7867 74.32 33.5733 78.8 30.16C83.3867 26.64 88.6667 24.88 94.64 24.88C103.813 24.88 111.013 27.76 116.24 33.52C121.573 39.1733 124.24 46.6933 124.24 56.08V106H104.24V57.52C104.24 52.9333 102.907 48.9333 100.24 45.52C97.68 42.1067 94.1067 40.4 89.52 40.4C83.0133 40.4 78.48 42.7467 75.92 47.44C73.36 52.1333 72.08 58.48 72.08 66.48L72.24 106H52.24L52.4 58.64C52.4 53.3067 50.96 48.9333 48.08 45.52C45.2 42.1067 41.5733 40.4 37.2 40.4C30.8 40.4 26.32 42.8 23.76 47.6C21.3067 52.2933 20.08 58.6933 20.08 66.8V106H0.24V26ZM167.67 107.6C162.977 107.6 158.603 106.747 154.55 105.04C150.497 103.227 147.19 100.507 144.63 96.88C142.177 93.1467 140.95 88.6133 140.95 83.28C140.95 76.1333 143.51 70.3733 148.63 66C153.75 61.6267 161.643 59.0667 172.31 58.32C181.057 57.5733 187.35 56.6133 191.19 55.44C195.03 54.2667 196.95 52.1867 196.95 49.2C196.95 45.8933 195.35 43.44 192.15 41.84C189.057 40.1333 185.377 39.28 181.11 39.28C175.883 39.28 171.563 40.5067 168.15 42.96C164.843 45.3067 163.19 48.88 163.19 53.68H144.15C144.15 44.4 147.617 37.3067 154.55 32.4C161.59 27.3867 170.443 24.88 181.11 24.88C191.243 24.88 199.51 27.12 205.91 31.6C212.417 36.08 215.67 43.12 215.67 52.72V106H195.19L196.63 94.96H195.51C192.523 99.3333 188.47 102.533 183.35 104.56C178.23 106.587 173.003 107.6 167.67 107.6ZM161.27 82.48C161.27 86.1067 162.497 88.88 164.95 90.8C167.51 92.72 170.71 93.68 174.55 93.68C175.19 93.68 176.15 93.5733 177.43 93.36C182.443 93.04 186.923 91.12 190.87 87.6C194.817 84.08 196.897 79.6533 197.11 74.32L197.43 64.56H197.11C195.617 66.8 193.217 68.2933 189.91 69.04C186.603 69.7867 181.857 70.48 175.67 71.12C166.07 72.2933 161.27 76.08 161.27 82.48ZM233.685 26H251.125L248.245 39.76H249.525C250.485 36.6667 252.032 34.1067 254.165 32.08C256.298 29.9467 258.272 28.4 260.085 27.44C263.498 25.84 267.765 25.04 272.885 25.04C274.592 25.04 275.925 25.0933 276.885 25.2V42.64L273.205 42.48C266.912 42.48 262.005 44.72 258.485 49.2C254.965 53.5733 253.205 61.36 253.205 72.56V106H233.685V26ZM289.463 26H309.943V106H289.463V26ZM288.503 0.719992H310.903V15.12H288.503V0.719992ZM353.451 107.6C348.758 107.6 344.385 106.747 340.331 105.04C336.278 103.227 332.971 100.507 330.411 96.88C327.958 93.1467 326.731 88.6133 326.731 83.28C326.731 76.1333 329.291 70.3733 334.411 66C339.531 61.6267 347.425 59.0667 358.091 58.32C366.838 57.5733 373.131 56.6133 376.971 55.44C380.811 54.2667 382.731 52.1867 382.731 49.2C382.731 45.8933 381.131 43.44 377.931 41.84C374.838 40.1333 371.158 39.28 366.891 39.28C361.665 39.28 357.345 40.5067 353.931 42.96C350.625 45.3067 348.971 48.88 348.971 53.68H329.931C329.931 44.4 333.398 37.3067 340.331 32.4C347.371 27.3867 356.225 24.88 366.891 24.88C377.025 24.88 385.291 27.12 391.691 31.6C398.198 36.08 401.451 43.12 401.451 52.72V106H380.971L382.411 94.96H381.291C378.305 99.3333 374.251 102.533 369.131 104.56C364.011 106.587 358.785 107.6 353.451 107.6ZM347.051 82.48C347.051 86.1067 348.278 88.88 350.731 90.8C353.291 92.72 356.491 93.68 360.331 93.68C360.971 93.68 361.931 93.5733 363.211 93.36C368.225 93.04 372.705 91.12 376.651 87.6C380.598 84.08 382.678 79.6533 382.891 74.32L383.211 64.56H382.891C381.398 66.8 378.998 68.2933 375.691 69.04C372.385 69.7867 367.638 70.48 361.451 71.12C351.851 72.2933 347.051 76.08 347.051 82.48ZM418.986 26H438.666L437.226 41.84H437.706C438.56 39.1733 440.213 36.5067 442.666 33.84C445.12 31.1733 448.106 29.04 451.626 27.44C455.146 25.7333 458.933 24.88 462.986 24.88C471.733 24.88 478.88 27.6 484.426 33.04C490.08 38.3733 492.906 45.84 492.906 55.44V106H473.386V58.48C473.386 52.6133 472 48.1333 469.226 45.04C466.453 41.84 462.4 40.24 457.066 40.24C450.773 40.24 446.08 42.48 442.986 46.96C440 51.44 438.506 56.9333 438.506 63.44V106H418.986V26ZM536.264 107.6C531.57 107.6 527.197 106.747 523.144 105.04C519.09 103.227 515.784 100.507 513.224 96.88C510.77 93.1467 509.544 88.6133 509.544 83.28C509.544 76.1333 512.104 70.3733 517.224 66C522.344 61.6267 530.237 59.0667 540.904 58.32C549.65 57.5733 555.944 56.6133 559.784 55.44C563.624 54.2667 565.544 52.1867 565.544 49.2C565.544 45.8933 563.944 43.44 560.744 41.84C557.65 40.1333 553.97 39.28 549.704 39.28C544.477 39.28 540.157 40.5067 536.744 42.96C533.437 45.3067 531.784 48.88 531.784 53.68H512.744C512.744 44.4 516.21 37.3067 523.144 32.4C530.184 27.3867 539.037 24.88 549.704 24.88C559.837 24.88 568.104 27.12 574.504 31.6C581.01 36.08 584.264 43.12 584.264 52.72V106H563.784L565.224 94.96H564.104C561.117 99.3333 557.064 102.533 551.944 104.56C546.824 106.587 541.597 107.6 536.264 107.6ZM529.864 82.48C529.864 86.1067 531.09 88.88 533.544 90.8C536.104 92.72 539.304 93.68 543.144 93.68C543.784 93.68 544.744 93.5733 546.024 93.36C551.037 93.04 555.517 91.12 559.464 87.6C563.41 84.08 565.49 79.6533 565.704 74.32L566.024 64.56H565.704C564.21 66.8 561.81 68.2933 558.504 69.04C555.197 69.7867 550.45 70.48 544.264 71.12C534.664 72.2933 529.864 76.08 529.864 82.48ZM600.526 94.8C600.526 89.8933 601.86 86.48 604.526 84.56C607.193 82.5333 610.446 81.52 614.286 81.52C618.02 81.52 621.22 82.5333 623.886 84.56C626.553 86.48 627.886 89.8933 627.886 94.8C627.886 99.4933 626.553 102.907 623.886 105.04C621.22 107.067 618.02 108.08 614.286 108.08C610.446 108.08 607.193 107.067 604.526 105.04C601.86 102.907 600.526 99.4933 600.526 94.8Z" fill="#252220"/>
</svg>
